# xmcd
#
# Track frame offsets: 
#        150
#        17969
#        40997
#        56151
#        68938
#        88790
#        113175
#        130805
#        140129
#        168589
#
# Disc length: 2437 seconds
#
# Revision: 0
# Processed by: cddbd v1.5.2PL0 Copyright (c) Steve Scherf et al.
# Submitted via: ExactAudioCopy v1.0b3
#
DISCID=9709830a
DTITLE=MISIA - MISIAの森 -Forest Covers-
DYEAR=2011
DGENRE=R&B
TTITLE0=SMILE
TTITLE1=HEAL THE WORLD
TTITLE2=THE ROSE
TTITLE3=WHAT A WONDERFUL WORLD
TTITLE4=RIBBON IN THE SKY (Japanese Version)
TTITLE5=MERCY MERY ME (The Ecology)
TTITLE6=THIS CHRISTMAS
TTITLE7=WHITE CHRISTMAS
TTITLE8=CAN'T TAKE MY EYES OFF OF YOU
TTITLE9=大きな愛の木の下で
EXTD=
EXTT0=
EXTT1=
EXTT2=
EXTT3=
EXTT4=
EXTT5=
EXTT6=
EXTT7=
EXTT8=
EXTT9=
PLAYORDER=
